<?xml version="1.0" standalone="no"?>
<!DOCTYPE svg PUBLIC "-//W3C//DTD SVG 20010904//EN"
 "http://www.w3.org/TR/2001/REC-SVG-20010904/DTD/svg10.dtd">
<svg version="1.0" xmlns="http://www.w3.org/2000/svg"
 width="225.000000pt" height="225.000000pt" viewBox="0 0 225.000000 225.000000"
 preserveAspectRatio="xMidYMid meet">

<g transform="translate(0.000000,225.000000) scale(0.100000,-0.100000)"
fill="#000000" stroke="none">
<path d="M74 2232 c-34 -28 -51 -64 -56 -119 -3 -29 -2 -50 2 -48 10 6 30 -41
30 -68 0 -32 28 -67 66 -83 30 -13 33 -16 24 -40 -25 -64 -8 -138 47 -211 19
-26 22 -37 13 -52 -5 -11 -10 -38 -10 -60 0 -72 78 -133 202 -156 l35 -7 6
-70 c7 -78 11 -84 74 -94 36 -5 44 -11 53 -39 6 -18 19 -40 30 -50 19 -17 19
-18 -15 -59 -43 -53 -80 -133 -101 -219 -20 -81 -11 -145 37 -240 l31 -63 -41
-76 c-46 -89 -57 -135 -43 -177 7 -20 8 -42 1 -63 -16 -55 6 -122 53 -163 65
-55 123 -70 268 -70 69 0 161 7 205 15 82 15 308 19 600 10 191 -7 225 9 225
105 0 25 5 35 20 40 37 12 50 56 50 167 0 110 -16 164 -58 201 -20 18 -20 19
-1 60 10 23 19 58 19 77 0 20 5 41 12 48 18 18 13 151 -7 198 -13 32 -14 46
-4 84 10 39 9 51 -6 80 -9 19 -25 44 -35 55 -10 11 -20 31 -22 45 -3 14 -9 33
-13 43 -6 15 0 17 61 17 54 0 76 5 111 26 49 28 103 96 103 129 0 12 13 34 29
49 33 32 46 69 32 94 -7 12 -2 25 21 51 47 53 70 114 67 174 -2 40 2 60 19 87
26 41 30 116 7 146 -8 10 -15 27 -15 36 0 25 -46 63 -92 79 -21 7 -42 18 -46
24 -4 7 -20 20 -37 31 -44 29 -308 26 -454 -5 -124 -26 -156 -39 -202 -78 -23
-21 -50 -33 -84 -38 -65 -9 -93 -25 -139 -75 l-37 -41 -41 45 c-56 65 -110 94
-198 106 -40 6 -80 15 -87 22 -12 10 -111 39 -303 88 -80 21 -287 50 -348 50
-20 0 -46 -8 -58 -18z m252 -87 c92 -16 344 -79 379 -95 19 -8 20 -9 1 -9 -13
-1 -16 -4 -10 -10 12 -12 116 -31 171 -31 56 0 92 -19 137 -72 45 -52 47 -85
5 -133 -33 -37 -56 -44 -65 -20 -4 10 -13 13 -25 10 -10 -4 -34 4 -57 18 -60
39 -192 103 -247 120 -46 15 -192 37 -340 52 -130 13 -136 14 -151 51 -14 34
-19 116 -7 127 11 12 117 8 209 -8z m1648 -41 c9 -3 16 -12 16 -20 0 -8 23
-20 55 -29 68 -20 95 -51 95 -111 0 -54 -6 -54 -96 -12 -61 29 -76 31 -160 31
-51 -1 -126 -6 -166 -13 -174 -28 -373 -108 -450 -181 l-42 -40 -18 23 c-31
40 -43 93 -28 128 19 47 74 90 115 90 46 0 84 16 120 49 38 35 69 47 181 71
88 18 342 28 378 14z m-1359 -318 c55 -23 62 -98 13 -126 -25 -14 -31 -13 -63
4 -38 21 -50 44 -39 78 6 19 7 19 16 5 11 -20 48 -23 48 -3 0 7 -7 19 -15 26
-8 7 -12 16 -9 21 7 12 9 12 49 -5z m1084 -7 c46 -16 58 -73 24 -111 -32 -36
-133 -13 -133 31 0 26 11 33 25 15 9 -14 16 -14 33 -5 26 14 29 46 6 55 -8 3
-12 10 -9 16 8 13 15 13 54 -1z m-879 -198 c-26 -25 -40 -47 -38 -58 3 -16 17
-18 131 -21 l127 -3 -26 -39 c-30 -45 -26 -75 12 -92 13 -6 24 -16 24 -23 0
-15 -304 -195 -331 -195 -26 0 -79 53 -85 87 -8 41 -33 59 -97 68 -26 4 -50
11 -53 16 -7 11 69 65 112 79 28 9 34 17 32 33 -3 20 -11 23 -98 29 -106 7
-218 38 -244 67 -12 13 -15 27 -11 41 8 24 3 24 120 0 87 -18 250 -7 360 23
50 13 94 25 98 26 4 0 -11 -17 -33 -38z m797 -42 c100 -24 229 -22 282 5 43
23 93 21 109 -4 11 -18 9 -24 -18 -46 -20 -17 -30 -35 -30 -54 0 -33 -31 -75
-70 -95 -44 -23 -265 -5 -322 27 -78 43 -111 125 -68 168 24 24 11 24 117 -1z
m-179 -34 c2 -9 -1 -30 -7 -46 -15 -42 -5 -56 79 -114 39 -28 93 -67 120 -87
73 -57 79 -92 13 -78 -21 5 -39 7 -41 5 -2 -2 29 -25 68 -51 73 -48 103 -85
83 -105 -7 -7 -22 -4 -49 10 -40 22 -74 25 -109 12 -17 -7 -15 -8 10 -14 40
-8 124 -74 148 -114 27 -47 34 -136 13 -167 -9 -14 -16 -45 -16 -69 0 -57 -24
-88 -96 -123 -54 -27 -84 -56 -84 -82 0 -12 13 -13 68 -6 120 14 125 13 144
-26 22 -43 25 -177 5 -204 -12 -17 -21 -16 -153 23 -198 59 -272 67 -446 54
-79 -7 -188 -22 -243 -34 -118 -25 -255 -22 -345 8 -71 23 -75 44 -24 139 20
38 43 82 51 97 14 26 13 31 -20 86 -48 81 -60 124 -54 191 5 59 48 163 88 213
30 39 123 100 231 152 51 25 94 45 95 45 4 0 133 -232 133 -240 0 -12 45 -24
59 -15 7 4 11 53 10 126 0 77 4 125 11 134 21 26 50 27 96 5 25 -12 48 -20 51
-16 9 9 -25 43 -61 60 -58 28 -134 97 -150 138 -18 43 -21 89 -7 104 6 5 79 8
168 7 137 -1 158 -3 161 -18z m-816 -1296 c80 -32 184 -35 295 -10 148 33 235
36 453 12 107 -11 231 -20 275 -19 94 2 131 -12 115 -42 -6 -11 -20 -25 -32
-31 -25 -14 -157 -13 -293 1 -106 11 -330 5 -430 -12 -193 -32 -326 -28 -405
12 -43 22 -60 46 -60 84 0 32 13 33 82 5z"/>
<path d="M820 1006 c-169 -49 -256 -184 -183 -285 36 -49 87 -66 200 -66 119
0 119 0 153 -92 17 -47 27 -63 41 -63 15 0 19 8 19 40 0 21 5 73 11 115 19
123 54 134 85 26 28 -97 64 -108 64 -19 0 47 1 50 23 44 143 -41 228 -44 350
-12 69 18 92 30 111 58 22 31 20 49 -11 96 -59 86 -176 151 -248 138 -22 -4
-59 -28 -97 -61 -35 -31 -77 -60 -95 -66 -41 -13 -94 1 -148 41 -166 122 -189
131 -275 106z"/>
</g>
</svg>
